<?xml version="1.0" encoding="UTF-8"?>
<svg width="54px" height="27px" viewBox="0 0 54 27" version="1.1" xmlns="http://www.w3.org/2000/svg" xmlns:xlink="http://www.w3.org/1999/xlink">
    <!-- Generator: Sketch 55.1 (78136) - https://sketchapp.com -->
    <title>Logo</title>
    <desc>Created with Sketch.</desc>
    <g id="Logo" stroke="none" stroke-width="1" fill="none" fill-rule="evenodd">
        <g id="vector" fill="#444444" fill-rule="nonzero">
            <path d="M50.8359375,0 C49.4610469,0 48.2886563,0.820331407 47.8532813,1.96228061 L30.1640625,1.96228061 L30.1640625,0.981140303 C30.1640625,0.439256514 29.6918789,0 29.109375,0 L24.890625,0 C24.3081211,0 23.8359375,0.439256514 23.8359375,0.981140303 L23.8359375,1.96228061 L6.14671875,1.96228061 C5.71134375,0.820331407 4.53895312,0 3.1640625,0 C1.41939844,0 0,1.32041862 0,2.94342091 C0,4.5664232 1.41939844,5.88684182 3.1640625,5.88684182 C4.53895312,5.88684182 5.71134375,5.06651041 6.14671875,3.92456121 L16.7499141,3.92456121 C14.5003711,4.80022893 12.4374023,5.93697809 10.7393555,7.26867982 C10.2939609,7.61796577 10.2373242,8.23696719 10.612793,8.65120462 C10.8214102,8.88147825 11.1195703,9 11.4196289,9 C11.6596758,9 11.9009883,8.92425597 12.0988477,8.76903957 C15.124957,6.39585741 19.4434805,4.70093753 23.8359375,4.13246484 L23.8359375,4.90570152 C23.8359375,5.4475853 24.3081211,5.88684182 24.890625,5.88684182 L29.109375,5.88684182 C29.6918789,5.88684182 30.1640625,5.4475853 30.1640625,4.90570152 L30.1640625,4.13246484 C34.5565195,4.70093753 38.875043,6.39585741 41.9011523,8.76894146 C42.0990117,8.92415785 42.3403242,9 42.5803711,8.99990189 C42.8805352,8.99990189 43.1786953,8.88138014 43.387207,8.65110651 C43.7627812,8.23696719 43.7060391,7.61796577 43.2606445,7.26867982 C41.5625977,5.93697809 39.4996289,4.80022893 37.2500859,3.92456121 L47.8532813,3.92456121 C48.2886563,5.06651041 49.4609414,5.88684182 50.8359375,5.88684182 C52.5806016,5.88684182 54,4.5664232 54,2.94342091 C54,1.32041862 52.5806016,0 50.8359375,0 Z M3.1640625,3.92456121 C2.58250781,3.92456121 2.109375,3.48442167 2.109375,2.94342091 C2.109375,2.40242015 2.58250781,1.96228061 3.1640625,1.96228061 C3.74561719,1.96228061 4.21875,2.40242015 4.21875,2.94342091 C4.21875,3.48442167 3.74561719,3.92456121 3.1640625,3.92456121 Z M28.0546875,2.94342091 L28.0546875,3.03172354 L28.0546875,3.92456121 L25.9453125,3.92456121 L25.9453125,3.03172354 L25.9453125,2.94342091 L25.9453125,1.96228061 L28.0546875,1.96228061 L28.0546875,2.94342091 Z M50.8359375,3.92456121 C50.2543828,3.92456121 49.78125,3.48442167 49.78125,2.94342091 C49.78125,2.40242015 50.2543828,1.96228061 50.8359375,1.96228061 C51.4174922,1.96228061 51.890625,2.40242015 51.890625,2.94342091 C51.890625,3.48442167 51.4174922,3.92456121 50.8359375,3.92456121 Z" id="Shape"></path>
        </g>
        <rect id="Rectangle" fill="#444444" x="14" y="9" width="26" height="18"></rect>
        <text id="NR" font-family="CircularStd-Book, Circular Std" font-size="14" font-weight="300" fill="#FFFFFF">
            <tspan x="17" y="23">NR</tspan>
        </text>
    </g>
</svg>